<?xml version="1.0" standalone="no"?>
<!DOCTYPE svg PUBLIC "-//W3C//DTD SVG 20010904//EN"
 "http://www.w3.org/TR/2001/REC-SVG-20010904/DTD/svg10.dtd">
<svg version="1.0" xmlns="http://www.w3.org/2000/svg"
 width="1200.000000pt" height="1131.000000pt" viewBox="0 0 1200.000000 1131.000000"
 preserveAspectRatio="xMidYMid meet">

<g transform="translate(0.000000,1131.000000) scale(0.100000,-0.100000)"
fill="#000000" stroke="none">
<path d="M5912 10765 c-23 -71 -316 -974 -650 -2005 l-609 -1875 -2117 -5
-2116 -5 1692 -1230 c931 -676 1700 -1237 1711 -1245 18 -15 -7 -93 -632
-2020 -358 -1102 -649 -2005 -648 -2006 1 -1 769 556 1706 1238 1604 1166
1705 1238 1725 1225 11 -8 777 -564 1701 -1236 924 -672 1681 -1218 1683
-1213 1 5 -288 903 -643 1997 -355 1094 -644 1994 -641 2000 2 6 767 565 1700
1243 932 678 1698 1237 1701 1243 4 5 -786 9 -2107 9 l-2113 0 -555 1713
c-305 941 -598 1845 -651 2007 l-96 295 -41 -130z"/>
</g>
</svg>
